<?xml version="1.0" encoding="UTF-8" standalone="no"?>
<svg
   xmlns:dc="http://purl.org/dc/elements/1.1/"
   xmlns:cc="http://creativecommons.org/ns#"
   xmlns:rdf="http://www.w3.org/1999/02/22-rdf-syntax-ns#"
   xmlns:svg="http://www.w3.org/2000/svg"
   xmlns="http://www.w3.org/2000/svg"
   xmlns:sodipodi="http://sodipodi.sourceforge.net/DTD/sodipodi-0.dtd"
   xmlns:inkscape="http://www.inkscape.org/namespaces/inkscape"
   width="210mm"
   height="297mm"
   viewBox="0 0 210 297"
   version="1.1"
   id="svg8"
   inkscape:version="1.0.2-2 (e86c870879, 2021-01-15)"
   sodipodi:docname="centremark_sketchytree.svg">
  <defs
     id="defs2" />
  <sodipodi:namedview
     id="base"
     pagecolor="#ffffff"
     bordercolor="#666666"
     borderopacity="1.0"
     inkscape:pageopacity="0.0"
     inkscape:pageshadow="2"
     inkscape:zoom="0.35"
     inkscape:cx="-150"
     inkscape:cy="560"
     inkscape:document-units="mm"
     inkscape:current-layer="layer1"
     inkscape:document-rotation="0"
     showgrid="false"
     inkscape:window-width="1267"
     inkscape:window-height="683"
     inkscape:window-x="51"
     inkscape:window-y="0"
     inkscape:window-maximized="0" />
  <metadata
     id="metadata5">
    <rdf:RDF>
      <cc:Work
         rdf:about="">
        <dc:format>image/svg+xml</dc:format>
        <dc:type
           rdf:resource="http://purl.org/dc/dcmitype/StillImage" />
        <dc:title></dc:title>
      </cc:Work>
    </rdf:RDF>
  </metadata>
  <g
     inkscape:label="Layer 1"
     inkscape:groupmode="layer"
     id="layer1">
    <path
       style="fill:none;stroke:#000000;stroke-width:18.065;stroke-linecap:round;stroke-linejoin:round;stroke-opacity:1;stroke-miterlimit:4;stroke-dasharray:none"
       d="m 157.99405,83.910714 c 0,0 -55.94048,36.285716 -57.45238,39.309526 -1.51191,3.02381 -6.047623,27.21428 -7.559529,34.01785 -1.511903,6.80357 -9.827381,52.16072 -9.827381,52.16072 0,0 -9.827379,6.80357 -13.607143,9.82738 -3.77976,3.02381 -27.214284,15.11905 -27.214284,15.11905"
       id="path848" />
    <path
       style="fill:none;stroke:#000000;stroke-width:18.365;stroke-linecap:round;stroke-linejoin:round;stroke-opacity:1;stroke-miterlimit:4;stroke-dasharray:none"
       d="m 39.309524,74.083332 16.630951,20.410715 c 0,0 4.535715,11.339283 6.047618,15.875003 1.511906,4.53571 14.363097,12.09523 14.363097,12.09523 0,0 15.875,6.04762 18.898809,7.55953 3.023809,1.5119 18.142861,10.58333 18.142861,10.58333 l 9.82738,9.07143 c 0,0 11.33928,6.80357 14.36309,11.33929 3.02381,4.53571 6.80357,15.875 6.80357,15.875 0,0 0.75596,5.29166 0.75596,9.07142 0,3.77977 0,11.33929 0,15.11905 0,3.77976 0,11.33929 0,11.33929 0,0 6.04761,12.09523 6.80357,15.11904 0.75595,3.02381 6.80357,9.82739 6.80357,9.82739 l 2.26786,4.53571"
       id="path850" />
  </g>
</svg>
